<svg width="394" height="91" viewBox="0 0 394 91" fill="none" xmlns="http://www.w3.org/2000/svg">
<path d="M13.0625 3.75V81.3125C13.0625 83.3542 12.625 84.875 11.75 85.875C10.7083 87.125 9.22917 88.2292 7.3125 89.1875C5.4375 90.1458 3.89583 90.625 2.6875 90.625C1.22917 90.625 0.5 89.7292 0.5 87.9375V10.375C0.5 8.625 0.9375 7.22917 1.8125 6.1875C2.89583 4.89583 4.375 3.72917 6.25 2.6875C8.125 1.60417 9.66667 1.0625 10.875 1.0625C12.3333 1.0625 13.0625 1.95833 13.0625 3.75ZM81.0625 87.3125V9.125C81.0625 6.66667 82.1042 4.70833 84.1875 3.25C86.3125 1.79167 88.1875 1.0625 89.8125 1.0625C91.2292 1.0625 91.9375 1.95833 91.9375 3.75V81.3125C91.9375 83.3958 91.5208 84.9167 90.6875 85.875C89.6042 87.125 88.2708 88.2292 86.6875 89.1875C85.1458 90.1458 83.9167 90.625 83 90.625C82.625 90.625 82.3125 90.5833 82.0625 90.5C81.8542 90.4167 81.625 90.125 81.375 89.625C81.1667 89.0833 81.0625 88.3125 81.0625 87.3125ZM72.8125 77.5625L30.5 10.125C30 9.33333 29.75 8.60417 29.75 7.9375C29.75 7.02083 30.2292 6.04167 31.1875 5C33.6875 2.375 36.0208 1.0625 38.1875 1.0625C39.2292 1.0625 40.1667 1.72917 41 3.0625L74.875 56.625C76 58.375 76.6875 60 76.9375 61.5C77.1875 62.9583 77.3125 65.3333 77.3125 68.625C77.3125 75.9583 76.5417 79.625 75 79.625C74.4583 79.625 73.8125 79.0417 73.0625 77.875C72.9375 77.75 72.8542 77.6458 72.8125 77.5625ZM39.75 32.5C40.4167 34.0417 40.75 35.9375 40.75 38.1875V81.3125C40.75 83.3958 40.3333 84.9167 39.5 85.875C38.4583 87.125 37.125 88.2292 35.5 89.1875C33.9167 90.1458 32.7083 90.625 31.875 90.625C30.5417 90.625 29.875 89.7292 29.875 87.9375V22C29.875 21 30.2708 20.5 31.0625 20.5C31.6042 20.5 32.1875 20.875 32.8125 21.625C33.4792 22.375 34.5417 23.8333 36 26C37.6667 28.5 38.9167 30.6667 39.75 32.5ZM119.438 2.3125H153.125C154.917 2.3125 155.812 2.95833 155.812 4.25C155.812 4.83333 155.396 5.89583 154.562 7.4375C153.729 8.9375 152.729 10.2083 151.562 11.25C150.604 12.125 149.083 12.5625 147 12.5625H111.125C110.5 12.5625 110.042 12.5417 109.75 12.5C109.458 12.4167 109.188 12.2292 108.938 11.9375C108.729 11.6458 108.625 11.2292 108.625 10.6875C108.625 9.14583 109.833 7.375 112.25 5.375C114.708 3.33333 117.104 2.3125 119.438 2.3125ZM108.688 87.3125V56.5C108.688 55 109.188 54.0208 110.188 53.5625C111.229 53.0625 112.833 52.8125 115 52.8125C117.333 52.8125 118.958 53.0625 119.875 53.5625C120.792 54.0208 121.25 55 121.25 56.5V77.1875C121.25 78.8958 122.104 79.75 123.812 79.75H154.375C156.167 79.75 157.062 80.3958 157.062 81.6875C157.062 82.2708 156.646 83.3542 155.812 84.9375C154.979 86.4792 154 87.75 152.875 88.75C151.917 89.5833 150.375 90 148.25 90H110.875C109.417 90 108.688 89.1042 108.688 87.3125ZM108.688 46.5V20.0625C108.688 18.5625 109.188 17.5625 110.188 17.0625C111.229 16.5625 112.833 16.3125 115 16.3125C117.333 16.3125 118.958 16.5625 119.875 17.0625C120.792 17.5208 121.25 18.5208 121.25 20.0625V36.25C121.25 37.9583 122.104 38.8125 123.812 38.8125H149.25C151.042 38.8125 151.938 39.4583 151.938 40.75C151.938 41.3333 151.521 42.3958 150.688 43.9375C149.854 45.4375 148.875 46.7083 147.75 47.75C146.792 48.625 145.25 49.0625 143.125 49.0625H111.25C109.542 49.0625 108.688 48.2083 108.688 46.5ZM210.812 32.1875C210.812 29.0625 210.375 26.3333 209.5 24C208.667 21.625 207.542 19.7292 206.125 18.3125C204.75 16.8542 203.021 15.6875 200.938 14.8125C198.854 13.8958 196.708 13.2708 194.5 12.9375C192.333 12.6042 189.896 12.4375 187.188 12.4375H172.312C171.771 12.4375 171.333 12.4167 171 12.375C170.708 12.3333 170.438 12.2083 170.188 12C169.979 11.75 169.875 11.4167 169.875 11C169.875 9.20833 171.062 7.33333 173.438 5.375C175.812 3.41667 178.208 2.39583 180.625 2.3125L192.5 2.125C194.208 2.125 195.833 2.1875 197.375 2.3125C198.917 2.39583 200.792 2.66667 203 3.125C205.208 3.54167 207.229 4.10417 209.062 4.8125C210.896 5.52083 212.771 6.5625 214.688 7.9375C216.646 9.27083 218.271 10.8542 219.562 12.6875C220.896 14.5208 221.979 16.8333 222.812 19.625C223.688 22.4167 224.125 25.5208 224.125 28.9375C224.125 37.8542 219.688 45.375 210.812 51.5C209.521 52.4167 208.875 53.375 208.875 54.375C208.875 55.125 209.229 56.0417 209.938 57.125L224.562 80.625C225.479 82.125 225.938 83.4167 225.938 84.5C225.938 86.1667 224.833 87.6458 222.625 88.9375C220.833 90.0625 219.188 90.625 217.688 90.625C216.312 90.625 215.104 89.7292 214.062 87.9375L196.75 57.625C196.25 56.875 196 56.1458 196 55.4375C196 54.2708 196.792 53.2292 198.375 52.3125C202.458 50.0208 205.542 47.125 207.625 43.625C209.75 40.125 210.812 36.3125 210.812 32.1875ZM169.875 49.75V19.75C169.875 18.25 170.375 17.2708 171.375 16.8125C172.417 16.3125 174 16.0625 176.125 16.0625C178.458 16.0625 180.083 16.3125 181 16.8125C181.958 17.2708 182.438 18.25 182.438 19.75V42.5C182.438 44.2917 183.229 45.1875 184.812 45.1875H195.75C197.542 45.1875 198.438 45.7083 198.438 46.75C198.438 47.75 197.458 48.9167 195.5 50.25C193.542 51.5417 191.125 52.625 188.25 53.5C186.5 54.0417 182.167 54.3125 175.25 54.3125C173.125 54.3125 171.688 53.9375 170.938 53.1875C170.229 52.4375 169.875 51.2917 169.875 49.75ZM182.438 61.9375V81.3125C182.438 83.3542 182 84.875 181.125 85.875C180.083 87.125 178.604 88.2292 176.688 89.1875C174.812 90.1458 173.271 90.625 172.062 90.625C170.604 90.625 169.875 89.7292 169.875 87.9375V61.9375C169.875 60.4375 170.396 59.4167 171.438 58.875C172.521 58.3333 174.125 58.0625 176.25 58.0625C178.542 58.0625 180.146 58.3333 181.062 58.875C181.979 59.375 182.438 60.3958 182.438 61.9375ZM288.25 12.5625H237.062C235.271 12.5625 234.375 11.9167 234.375 10.625C234.375 10.0417 234.792 8.97917 235.625 7.4375C236.458 5.89583 237.438 4.625 238.562 3.625C239.521 2.75 241.062 2.3125 243.188 2.3125H294.375C296.167 2.3125 297.062 2.95833 297.062 4.25C297.062 4.83333 296.646 5.89583 295.812 7.4375C294.979 8.97917 294 10.25 292.875 11.25C291.917 12.125 290.375 12.5625 288.25 12.5625ZM258.312 87.9375L258.25 20.0625C258.25 18.5625 258.75 17.5833 259.75 17.125C260.792 16.625 262.375 16.375 264.5 16.375C266.833 16.375 268.458 16.625 269.375 17.125C270.333 17.5833 270.812 18.5625 270.812 20.0625V81.3125C270.812 83.1042 270.396 84.5 269.562 85.5C268.479 86.7917 266.979 87.9792 265.062 89.0625C263.188 90.1042 261.667 90.625 260.5 90.625C259.042 90.625 258.312 89.7292 258.312 87.9375ZM319.938 3.75V81.3125C319.938 83.3542 319.5 84.875 318.625 85.875C317.583 87.125 316.104 88.2292 314.188 89.1875C312.312 90.1458 310.771 90.625 309.562 90.625C308.104 90.625 307.375 89.7292 307.375 87.9375V10.375C307.375 8.625 307.812 7.22917 308.688 6.1875C309.771 4.89583 311.25 3.72917 313.125 2.6875C315 1.60417 316.542 1.0625 317.75 1.0625C319.208 1.0625 319.938 1.95833 319.938 3.75ZM346.125 70.75L342.625 81.3125C341.75 83.9792 340.229 86.2083 338.062 88C335.896 89.75 333.458 90.625 330.75 90.625C330.083 90.625 329.521 90.4375 329.062 90.0625C328.646 89.7292 328.438 89.2292 328.438 88.5625C328.438 88.3125 328.521 87.9375 328.688 87.4375L334.688 70.25C334.979 69.375 335.292 68.7083 335.625 68.25C335.958 67.75 336.417 67.3958 337 67.1875C337.625 66.9792 338.167 66.8542 338.625 66.8125C339.125 66.7708 339.958 66.75 341.125 66.75C342.083 66.75 342.792 66.7708 343.25 66.8125C343.708 66.8125 344.229 66.875 344.812 67C345.438 67.125 345.875 67.3542 346.125 67.6875C346.375 67.9792 346.5 68.3958 346.5 68.9375C346.5 69.3125 346.375 69.9167 346.125 70.75ZM366.688 3.0625L393.312 80.5C393.604 81.8333 393.75 82.5833 393.75 82.75C393.75 84.5417 392.708 86.3125 390.625 88.0625C388.542 89.7708 386.708 90.625 385.125 90.625C383.75 90.625 382.688 89.5625 381.938 87.4375L355.938 11.5625C355.521 9.6875 355.312 8.6875 355.312 8.5625C355.312 6.72917 356.458 4.91667 358.75 3.125C361.083 1.29167 362.875 0.375 364.125 0.375C364.833 0.375 365.333 0.5625 365.625 0.9375C365.958 1.27083 366.312 1.97917 366.688 3.0625ZM365.562 63H340.188C338.604 63 337.812 62.3125 337.812 60.9375C337.812 60.5625 337.896 60.1458 338.062 59.6875L350.875 21.375C351.458 19.75 352.125 18.9375 352.875 18.9375C353.542 18.9375 354.125 19.3542 354.625 20.1875C355.125 20.9792 355.667 22.2708 356.25 24.0625C357.333 27.4375 357.875 29.9583 357.875 31.625C357.875 32.7917 357.667 34.0208 357.25 35.3125L352.375 50.1875C352.292 50.3958 352.25 50.6875 352.25 51.0625C352.25 52.1875 352.896 52.75 354.188 52.75H360.688C362.812 52.75 364.25 52.8542 365 53.0625C365.75 53.2708 366.354 53.8542 366.812 54.8125C367.229 55.6458 367.562 56.7292 367.812 58.0625C368.104 59.3542 368.25 60.3125 368.25 60.9375C368.25 62.3125 367.354 63 365.562 63Z" fill="#7E5BEF"/>
</svg>
